<svg version="1" xmlns="http://www.w3.org/2000/svg" width="805.333" height="805.333" viewBox="0 0 604.000000 604.000000"><path d="M262.2 39.7l-39.1 39.8 150.7 150.7L524.5 381l39.5-39.5 39.5-39.5-151.1-151.1L301.3-.2l-39.1 39.9zM101.7 199.8C46.3 255.2 1 301 1 301.5s17.4 18.4 38.7 39.7L78.4 380l81.9-81.8c45.1-44.9 90.7-90.6 101.5-101.5l19.6-19.7-38.9-39C221 116.5 203.3 99 203 99c-.3 0-45.8 45.3-101.3 100.8zM270.2 228.3L239 259.6v280.9l31.5 31.5 31.5 31.5 31.5-31.5 31.5-31.5v-280l-31.8-31.8-31.7-31.7-31.3 31.3zM154 344.5L98.5 400l55.8 55.8 55.7 55.7V400.2c0-61.1-.1-111.2-.3-111.2-.1 0-25.2 25-55.7 55.5zM393 400.5c0 60.8.3 110.5.7 110.5.5 0 25.7-24.9 56-55.2l55.3-55.3-55.2-55.2c-30.4-30.4-55.6-55.3-56-55.3-.5 0-.8 49.7-.8 110.5z"/></svg>